<?xml version="1.0" encoding="UTF-8" standalone="no"?>
<!DOCTYPE svg PUBLIC "-//W3C//DTD SVG 1.1//EN"
 "http://www.w3.org/Graphics/SVG/1.1/DTD/svg11.dtd">
<!-- Generated by graphviz version 2.47.0 (20210316.0004)
 -->
<!-- Title: dependencies Pages: 1 -->
<svg width="504pt" height="211pt"
 viewBox="0.00 0.00 504.00 211.00" xmlns="http://www.w3.org/2000/svg" xmlns:xlink="http://www.w3.org/1999/xlink">
<g id="graph0" class="graph" transform="scale(1 1) rotate(0) translate(4 207)">
<title>dependencies</title>
<polygon fill="white" stroke="transparent" points="-4,4 -4,-207 500,-207 500,4 -4,4"/>
<text text-anchor="start" x="227.01" y="-42.4" font-family="Times-12" font-weight="bold" font-size="14.00">Legend</text>
<polygon fill="#ffffb3" stroke="transparent" points="14,-10 14,-30 34,-30 34,-10 14,-10"/>
<text text-anchor="start" x="37.63" y="-15.4" font-family="Times-12" font-size="14.00"> &#160;Declarations</text>
<polygon fill="#8dd3c7" stroke="transparent" points="127,-10 127,-30 147,-30 147,-10 127,-10"/>
<text text-anchor="start" x="150.73" y="-15.4" font-family="Times-12" font-size="14.00"> &#160;Module</text>
<polygon fill="#80b1d3" stroke="transparent" points="213,-10 213,-30 233,-30 233,-10 213,-10"/>
<text text-anchor="start" x="236.78" y="-15.4" font-family="Times-12" font-size="14.00"> &#160;Bootstrap</text>
<polygon fill="#fdb462" stroke="transparent" points="310,-10 310,-30 330,-30 330,-10 310,-10"/>
<text text-anchor="start" x="333.67" y="-15.4" font-family="Times-12" font-size="14.00"> &#160;Providers</text>
<polygon fill="#fb8072" stroke="transparent" points="406,-10 406,-30 426,-30 426,-10 406,-10"/>
<text text-anchor="start" x="429.73" y="-15.4" font-family="Times-12" font-size="14.00"> &#160;Exports</text>
<g id="clust1" class="cluster">
<title>cluster_ArticlesModule</title>
<polygon fill="none" stroke="black" stroke-dasharray="1,5" points="107,-70 107,-195 389,-195 389,-70 107,-70"/>
</g>
<g id="clust3" class="cluster">
<title>cluster_ArticlesModule_imports</title>
<polygon fill="none" stroke="black" points="281,-78 281,-130 381,-130 381,-78 281,-78"/>
</g>
<g id="clust6" class="cluster">
<title>cluster_ArticlesModule_providers</title>
<polygon fill="none" stroke="black" points="115,-78 115,-130 273,-130 273,-78 115,-78"/>
</g>
<!-- CaslModule -->
<g id="node1" class="node">
<title>CaslModule</title>
<polygon fill="#8dd3c7" stroke="black" points="373.44,-122 370.44,-126 349.44,-126 346.44,-122 288.56,-122 288.56,-86 373.44,-86 373.44,-122"/>
<text text-anchor="middle" x="331" y="-99.8" font-family="Times,serif" font-size="14.00">CaslModule</text>
</g>
<!-- ArticlesModule -->
<g id="node2" class="node">
<title>ArticlesModule</title>
<polygon fill="#8dd3c7" stroke="black" points="312.86,-187 309.86,-191 288.86,-191 285.86,-187 209.14,-187 209.14,-151 312.86,-151 312.86,-187"/>
<text text-anchor="middle" x="261" y="-164.8" font-family="Times,serif" font-size="14.00">ArticlesModule</text>
</g>
<!-- CaslModule&#45;&gt;ArticlesModule -->
<g id="edge1" class="edge">
<title>CaslModule&#45;&gt;ArticlesModule</title>
<path fill="none" stroke="black" d="M300.86,-122.11C300.86,-122.11 300.86,-140.99 300.86,-140.99"/>
<polygon fill="black" stroke="black" points="297.36,-140.99 300.86,-150.99 304.36,-140.99 297.36,-140.99"/>
</g>
<!-- ArticlesService -->
<g id="node3" class="node">
<title>ArticlesService</title>
<ellipse fill="#fdb462" stroke="black" cx="194" cy="-104" rx="70.62" ry="18"/>
<text text-anchor="middle" x="194" y="-99.8" font-family="Times,serif" font-size="14.00">ArticlesService</text>
</g>
<!-- ArticlesService&#45;&gt;ArticlesModule -->
<g id="edge2" class="edge">
<title>ArticlesService&#45;&gt;ArticlesModule</title>
<path fill="none" stroke="black" d="M236.81,-118.43C236.81,-118.43 236.81,-140.89 236.81,-140.89"/>
<polygon fill="black" stroke="black" points="233.31,-140.89 236.81,-150.89 240.31,-140.89 233.31,-140.89"/>
</g>
</g>
</svg>
