<?xml version="1.0" encoding="UTF-8" standalone="no"?>
<!DOCTYPE svg PUBLIC "-//W3C//DTD SVG 1.1//EN"
 "http://www.w3.org/Graphics/SVG/1.1/DTD/svg11.dtd">
<!-- Generated by graphviz version 2.47.0 (20210316.0004)
 -->
<!-- Title: dependencies Pages: 1 -->
<svg width="504pt" height="211pt"
 viewBox="0.00 0.00 504.00 211.00" xmlns="http://www.w3.org/2000/svg" xmlns:xlink="http://www.w3.org/1999/xlink">
<g id="graph0" class="graph" transform="scale(1 1) rotate(0) translate(4 207)">
<title>dependencies</title>
<polygon fill="white" stroke="transparent" points="-4,4 -4,-207 500,-207 500,4 -4,4"/>
<text text-anchor="start" x="227.01" y="-42.4" font-family="Times-12" font-weight="bold" font-size="14.00">Legend</text>
<polygon fill="#ffffb3" stroke="transparent" points="14,-10 14,-30 34,-30 34,-10 14,-10"/>
<text text-anchor="start" x="37.63" y="-15.4" font-family="Times-12" font-size="14.00"> &#160;Declarations</text>
<polygon fill="#8dd3c7" stroke="transparent" points="127,-10 127,-30 147,-30 147,-10 127,-10"/>
<text text-anchor="start" x="150.73" y="-15.4" font-family="Times-12" font-size="14.00"> &#160;Module</text>
<polygon fill="#80b1d3" stroke="transparent" points="213,-10 213,-30 233,-30 233,-10 213,-10"/>
<text text-anchor="start" x="236.78" y="-15.4" font-family="Times-12" font-size="14.00"> &#160;Bootstrap</text>
<polygon fill="#fdb462" stroke="transparent" points="310,-10 310,-30 330,-30 330,-10 310,-10"/>
<text text-anchor="start" x="333.67" y="-15.4" font-family="Times-12" font-size="14.00"> &#160;Providers</text>
<polygon fill="#fb8072" stroke="transparent" points="406,-10 406,-30 426,-30 426,-10 406,-10"/>
<text text-anchor="start" x="429.73" y="-15.4" font-family="Times-12" font-size="14.00"> &#160;Exports</text>
<g id="clust1" class="cluster">
<title>cluster_AppModule</title>
<polygon fill="none" stroke="black" stroke-dasharray="1,5" points="21,-70 21,-195 475,-195 475,-70 21,-70"/>
</g>
<g id="clust3" class="cluster">
<title>cluster_AppModule_imports</title>
<polygon fill="none" stroke="black" points="29,-78 29,-130 467,-130 467,-78 29,-78"/>
</g>
<!-- ArticlesModule -->
<g id="node1" class="node">
<title>ArticlesModule</title>
<polygon fill="#8dd3c7" stroke="black" points="458.86,-122 455.86,-126 434.86,-126 431.86,-122 355.14,-122 355.14,-86 458.86,-86 458.86,-122"/>
<text text-anchor="middle" x="407" y="-99.8" font-family="Times,serif" font-size="14.00">ArticlesModule</text>
</g>
<!-- AppModule -->
<g id="node5" class="node">
<title>AppModule</title>
<polygon fill="#8dd3c7" stroke="black" points="282.66,-187 279.66,-191 258.66,-191 255.66,-187 199.34,-187 199.34,-151 282.66,-151 282.66,-187"/>
<text text-anchor="middle" x="241" y="-164.8" font-family="Times,serif" font-size="14.00">AppModule</text>
</g>
<!-- ArticlesModule&#45;&gt;AppModule -->
<g id="edge1" class="edge">
<title>ArticlesModule&#45;&gt;AppModule</title>
<path fill="none" stroke="black" d="M407,-122.11C407,-141.34 407,-169 407,-169 407,-169 292.89,-169 292.89,-169"/>
<polygon fill="black" stroke="black" points="292.89,-165.5 282.89,-169 292.89,-172.5 292.89,-165.5"/>
</g>
<!-- AuthModule -->
<g id="node2" class="node">
<title>AuthModule</title>
<polygon fill="#8dd3c7" stroke="black" points="336.55,-122 333.55,-126 312.55,-126 309.55,-122 249.45,-122 249.45,-86 336.55,-86 336.55,-122"/>
<text text-anchor="middle" x="293" y="-99.8" font-family="Times,serif" font-size="14.00">AuthModule</text>
</g>
<!-- AuthModule&#45;&gt;AppModule -->
<g id="edge2" class="edge">
<title>AuthModule&#45;&gt;AppModule</title>
<path fill="none" stroke="black" d="M266.03,-122.11C266.03,-122.11 266.03,-140.99 266.03,-140.99"/>
<polygon fill="black" stroke="black" points="262.53,-140.99 266.03,-150.99 269.53,-140.99 262.53,-140.99"/>
</g>
<!-- CaslModule -->
<g id="node3" class="node">
<title>CaslModule</title>
<polygon fill="#8dd3c7" stroke="black" points="231.44,-122 228.44,-126 207.44,-126 204.44,-122 146.56,-122 146.56,-86 231.44,-86 231.44,-122"/>
<text text-anchor="middle" x="189" y="-99.8" font-family="Times,serif" font-size="14.00">CaslModule</text>
</g>
<!-- CaslModule&#45;&gt;AppModule -->
<g id="edge3" class="edge">
<title>CaslModule&#45;&gt;AppModule</title>
<path fill="none" stroke="black" d="M215.19,-122.11C215.19,-122.11 215.19,-140.99 215.19,-140.99"/>
<polygon fill="black" stroke="black" points="211.7,-140.99 215.19,-150.99 218.7,-140.99 211.7,-140.99"/>
</g>
<!-- UsersModule -->
<g id="node4" class="node">
<title>UsersModule</title>
<polygon fill="#8dd3c7" stroke="black" points="128.92,-122 125.92,-126 104.92,-126 101.92,-122 37.08,-122 37.08,-86 128.92,-86 128.92,-122"/>
<text text-anchor="middle" x="83" y="-99.8" font-family="Times,serif" font-size="14.00">UsersModule</text>
</g>
<!-- UsersModule&#45;&gt;AppModule -->
<g id="edge4" class="edge">
<title>UsersModule&#45;&gt;AppModule</title>
<path fill="none" stroke="black" d="M83,-122.11C83,-141.34 83,-169 83,-169 83,-169 189.07,-169 189.07,-169"/>
<polygon fill="black" stroke="black" points="189.07,-172.5 199.07,-169 189.07,-165.5 189.07,-172.5"/>
</g>
</g>
</svg>
