<?xml version="1.0" encoding="UTF-8" standalone="no"?>
<!DOCTYPE svg PUBLIC "-//W3C//DTD SVG 1.1//EN"
 "http://www.w3.org/Graphics/SVG/1.1/DTD/svg11.dtd">
<!-- Generated by graphviz version 2.47.0 (20210316.0004)
 -->
<!-- Title: dependencies Pages: 1 -->
<svg width="1412pt" height="287pt"
 viewBox="0.00 0.00 1412.00 287.00" xmlns="http://www.w3.org/2000/svg" xmlns:xlink="http://www.w3.org/1999/xlink">
<g id="graph0" class="graph" transform="scale(1 1) rotate(0) translate(4 283)">
<title>dependencies</title>
<polygon fill="white" stroke="transparent" points="-4,4 -4,-283 1408,-283 1408,4 -4,4"/>
<text text-anchor="start" x="681.01" y="-42.4" font-family="Times-12" font-weight="bold" font-size="14.00">Legend</text>
<polygon fill="#ffffb3" stroke="transparent" points="468,-10 468,-30 488,-30 488,-10 468,-10"/>
<text text-anchor="start" x="491.63" y="-15.4" font-family="Times-12" font-size="14.00"> &#160;Declarations</text>
<polygon fill="#8dd3c7" stroke="transparent" points="581,-10 581,-30 601,-30 601,-10 581,-10"/>
<text text-anchor="start" x="604.73" y="-15.4" font-family="Times-12" font-size="14.00"> &#160;Module</text>
<polygon fill="#80b1d3" stroke="transparent" points="667,-10 667,-30 687,-30 687,-10 667,-10"/>
<text text-anchor="start" x="690.78" y="-15.4" font-family="Times-12" font-size="14.00"> &#160;Bootstrap</text>
<polygon fill="#fdb462" stroke="transparent" points="764,-10 764,-30 784,-30 784,-10 764,-10"/>
<text text-anchor="start" x="787.67" y="-15.4" font-family="Times-12" font-size="14.00"> &#160;Providers</text>
<polygon fill="#fb8072" stroke="transparent" points="860,-10 860,-30 880,-30 880,-10 860,-10"/>
<text text-anchor="start" x="883.73" y="-15.4" font-family="Times-12" font-size="14.00"> &#160;Exports</text>
<g id="clust1" class="cluster">
<title>cluster_AppModule</title>
<polygon fill="none" stroke="black" stroke-dasharray="1,5" points="480,-70 480,-271 754,-271 754,-70 480,-70"/>
</g>
<g id="clust3" class="cluster">
<title>cluster_AppModule_imports</title>
<polygon fill="none" stroke="black" points="488,-78 488,-206 714,-206 714,-78 488,-78"/>
</g>
<g id="clust7" class="cluster">
<title>cluster_ArticlesModule</title>
<polygon fill="none" stroke="black" stroke-dasharray="1,5" points="8,-70 8,-138 182,-138 182,-70 8,-70"/>
</g>
<g id="clust12" class="cluster">
<title>cluster_ArticlesModule_providers</title>
<polygon fill="none" stroke="black" points="16,-78 16,-130 174,-130 174,-78 16,-78"/>
</g>
<g id="clust13" class="cluster">
<title>cluster_AuthModule</title>
<polygon fill="none" stroke="black" stroke-dasharray="1,5" points="190,-70 190,-138 472,-138 472,-70 190,-70"/>
</g>
<g id="clust18" class="cluster">
<title>cluster_AuthModule_providers</title>
<polygon fill="none" stroke="black" points="198,-78 198,-130 464,-130 464,-78 198,-78"/>
</g>
<g id="clust19" class="cluster">
<title>cluster_CaslModule</title>
<polygon fill="none" stroke="black" stroke-dasharray="1,5" points="762,-146 762,-214 1114,-214 1114,-146 762,-146"/>
</g>
<g id="clust22" class="cluster">
<title>cluster_CaslModule_exports</title>
<polygon fill="none" stroke="black" points="964,-154 964,-206 1106,-206 1106,-154 964,-154"/>
</g>
<g id="clust24" class="cluster">
<title>cluster_CaslModule_providers</title>
<polygon fill="none" stroke="black" points="770,-154 770,-206 956,-206 956,-154 770,-154"/>
</g>
<g id="clust25" class="cluster">
<title>cluster_UsersModule</title>
<polygon fill="none" stroke="black" stroke-dasharray="1,5" points="1122,-146 1122,-214 1396,-214 1396,-146 1122,-146"/>
</g>
<g id="clust28" class="cluster">
<title>cluster_UsersModule_exports</title>
<polygon fill="none" stroke="black" points="1278,-154 1278,-206 1388,-206 1388,-154 1278,-154"/>
</g>
<g id="clust30" class="cluster">
<title>cluster_UsersModule_providers</title>
<polygon fill="none" stroke="black" points="1130,-154 1130,-206 1270,-206 1270,-154 1130,-154"/>
</g>
<!-- ArticlesModule -->
<g id="node1" class="node">
<title>ArticlesModule</title>
<polygon fill="#8dd3c7" stroke="black" points="599.86,-198 596.86,-202 575.86,-202 572.86,-198 496.14,-198 496.14,-162 599.86,-162 599.86,-198"/>
<text text-anchor="middle" x="548" y="-175.8" font-family="Times,serif" font-size="14.00">ArticlesModule</text>
</g>
<!-- AppModule -->
<g id="node5" class="node">
<title>AppModule</title>
<polygon fill="#8dd3c7" stroke="black" points="724.66,-263 721.66,-267 700.66,-267 697.66,-263 641.34,-263 641.34,-227 724.66,-227 724.66,-263"/>
<text text-anchor="middle" x="683" y="-240.8" font-family="Times,serif" font-size="14.00">AppModule</text>
</g>
<!-- ArticlesModule&#45;&gt;AppModule -->
<g id="edge1" class="edge">
<title>ArticlesModule&#45;&gt;AppModule</title>
<path fill="none" stroke="black" d="M548,-198.28C548,-219.32 548,-251 548,-251 548,-251 631.03,-251 631.03,-251"/>
<polygon fill="black" stroke="black" points="631.03,-254.5 641.03,-251 631.03,-247.5 631.03,-254.5"/>
</g>
<!-- AuthModule -->
<g id="node2" class="node">
<title>AuthModule</title>
<polygon fill="#8dd3c7" stroke="black" points="705.55,-198 702.55,-202 681.55,-202 678.55,-198 618.45,-198 618.45,-162 705.55,-162 705.55,-198"/>
<text text-anchor="middle" x="662" y="-175.8" font-family="Times,serif" font-size="14.00">AuthModule</text>
</g>
<!-- AuthModule&#45;&gt;AppModule -->
<g id="edge2" class="edge">
<title>AuthModule&#45;&gt;AppModule</title>
<path fill="none" stroke="black" d="M673.47,-198.11C673.47,-198.11 673.47,-216.99 673.47,-216.99"/>
<polygon fill="black" stroke="black" points="669.97,-216.99 673.47,-226.99 676.97,-216.99 669.97,-216.99"/>
</g>
<!-- CaslModule -->
<g id="node3" class="node">
<title>CaslModule</title>
<polygon fill="#8dd3c7" stroke="black" points="596.44,-122 593.44,-126 572.44,-126 569.44,-122 511.56,-122 511.56,-86 596.44,-86 596.44,-122"/>
<text text-anchor="middle" x="554" y="-99.8" font-family="Times,serif" font-size="14.00">CaslModule</text>
</g>
<!-- CaslModule&#45;&gt;ArticlesModule -->
<g id="edge5" class="edge">
<title>CaslModule&#45;&gt;ArticlesModule</title>
<path fill="none" stroke="black" d="M532.89,-122.01C532.89,-122.01 532.89,-151.85 532.89,-151.85"/>
<polygon fill="black" stroke="black" points="529.39,-151.85 532.89,-161.85 536.39,-151.85 529.39,-151.85"/>
</g>
<!-- CaslModule&#45;&gt;AppModule -->
<g id="edge3" class="edge">
<title>CaslModule&#45;&gt;AppModule</title>
<path fill="none" stroke="black" d="M596.36,-104C602.67,-104 607.11,-104 607.11,-104 607.11,-104 607.11,-239 607.11,-239 607.11,-239 631.06,-239 631.06,-239"/>
<polygon fill="black" stroke="black" points="631.06,-242.5 641.06,-239 631.06,-235.5 631.06,-242.5"/>
</g>
<!-- CaslAbilityFactory  -->
<g id="node9" class="node">
<title>CaslAbilityFactory </title>
<polygon fill="#fb8072" stroke="black" points="1098.32,-198 971.68,-198 971.68,-162 1098.32,-162 1098.32,-198"/>
<text text-anchor="middle" x="1035" y="-175.8" font-family="Times,serif" font-size="14.00">CaslAbilityFactory </text>
</g>
<!-- CaslModule&#45;&gt;CaslAbilityFactory  -->
<g id="edge10" class="edge">
<title>CaslModule&#45;&gt;CaslAbilityFactory </title>
<path fill="none" stroke="black" stroke-dasharray="5,2" d="M554,-122.06C554,-126.49 554,-130 554,-130 554,-130 1035,-130 1035,-130 1035,-130 1035,-151.95 1035,-151.95"/>
<polygon fill="black" stroke="black" points="1031.5,-151.95 1035,-161.95 1038.5,-151.95 1031.5,-151.95"/>
</g>
<!-- UsersModule -->
<g id="node4" class="node">
<title>UsersModule</title>
<polygon fill="#8dd3c7" stroke="black" points="705.92,-122 702.92,-126 681.92,-126 678.92,-122 614.08,-122 614.08,-86 705.92,-86 705.92,-122"/>
<text text-anchor="middle" x="660" y="-99.8" font-family="Times,serif" font-size="14.00">UsersModule</text>
</g>
<!-- UsersModule&#45;&gt;AuthModule -->
<g id="edge7" class="edge">
<title>UsersModule&#45;&gt;AuthModule</title>
<path fill="none" stroke="black" d="M683.84,-122.01C683.84,-122.01 683.84,-151.85 683.84,-151.85"/>
<polygon fill="black" stroke="black" points="680.34,-151.85 683.84,-161.85 687.34,-151.85 680.34,-151.85"/>
</g>
<!-- UsersModule&#45;&gt;AppModule -->
<g id="edge4" class="edge">
<title>UsersModule&#45;&gt;AppModule</title>
<path fill="none" stroke="black" d="M705.92,-113C711.51,-113 715.3,-113 715.3,-113 715.3,-113 715.3,-216.92 715.3,-216.92"/>
<polygon fill="black" stroke="black" points="711.8,-216.92 715.3,-226.92 718.8,-216.92 711.8,-216.92"/>
</g>
<!-- UsersService  -->
<g id="node11" class="node">
<title>UsersService </title>
<polygon fill="#fb8072" stroke="black" points="1379.85,-198 1286.15,-198 1286.15,-162 1379.85,-162 1379.85,-198"/>
<text text-anchor="middle" x="1333" y="-175.8" font-family="Times,serif" font-size="14.00">UsersService </text>
</g>
<!-- UsersModule&#45;&gt;UsersService  -->
<g id="edge12" class="edge">
<title>UsersModule&#45;&gt;UsersService </title>
<path fill="none" stroke="black" stroke-dasharray="5,2" d="M705.73,-95C857.2,-95 1333,-95 1333,-95 1333,-95 1333,-151.97 1333,-151.97"/>
<polygon fill="black" stroke="black" points="1329.5,-151.97 1333,-161.97 1336.5,-151.97 1329.5,-151.97"/>
</g>
<!-- ArticlesService -->
<g id="node6" class="node">
<title>ArticlesService</title>
<ellipse fill="#fdb462" stroke="black" cx="95" cy="-104" rx="70.62" ry="18"/>
<text text-anchor="middle" x="95" y="-99.8" font-family="Times,serif" font-size="14.00">ArticlesService</text>
</g>
<!-- ArticlesService&#45;&gt;ArticlesModule -->
<g id="edge6" class="edge">
<title>ArticlesService&#45;&gt;ArticlesModule</title>
<path fill="none" stroke="black" d="M95,-122.01C95,-144.49 95,-180 95,-180 95,-180 486.04,-180 486.04,-180"/>
<polygon fill="black" stroke="black" points="486.04,-183.5 496.04,-180 486.04,-176.5 486.04,-183.5"/>
</g>
<!-- AuthService -->
<g id="node7" class="node">
<title>AuthService</title>
<ellipse fill="#fdb462" stroke="black" cx="397" cy="-104" rx="59.11" ry="18"/>
<text text-anchor="middle" x="397" y="-99.8" font-family="Times,serif" font-size="14.00">AuthService</text>
</g>
<!-- AuthService&#45;&gt;AuthModule -->
<g id="edge8" class="edge">
<title>AuthService&#45;&gt;AuthModule</title>
<path fill="none" stroke="black" d="M397,-122.06C397,-133.44 397,-146 397,-146 397,-146 661.97,-146 661.97,-146 661.97,-146 661.97,-151.81 661.97,-151.81"/>
<polygon fill="black" stroke="black" points="658.47,-151.81 661.97,-161.81 665.47,-151.81 658.47,-151.81"/>
</g>
<!-- JwtStrategy -->
<g id="node8" class="node">
<title>JwtStrategy</title>
<ellipse fill="#fdb462" stroke="black" cx="263" cy="-104" rx="56.76" ry="18"/>
<text text-anchor="middle" x="263" y="-99.8" font-family="Times,serif" font-size="14.00">JwtStrategy</text>
</g>
<!-- JwtStrategy&#45;&gt;AuthModule -->
<g id="edge9" class="edge">
<title>JwtStrategy&#45;&gt;AuthModule</title>
<path fill="none" stroke="black" d="M263,-122.05C263,-136.37 263,-154 263,-154 263,-154 640.1,-154 640.1,-154 640.1,-154 640.1,-154.79 640.1,-154.79"/>
<polygon fill="black" stroke="black" points="636.6,-151.94 640.1,-161.94 643.6,-151.94 636.6,-151.94"/>
</g>
<!-- CaslAbilityFactory -->
<g id="node10" class="node">
<title>CaslAbilityFactory</title>
<ellipse fill="#fdb462" stroke="black" cx="863" cy="-180" rx="85.13" ry="18"/>
<text text-anchor="middle" x="863" y="-175.8" font-family="Times,serif" font-size="14.00">CaslAbilityFactory</text>
</g>
<!-- CaslAbilityFactory&#45;&gt;CaslModule -->
<g id="edge11" class="edge">
<title>CaslAbilityFactory&#45;&gt;CaslModule</title>
<path fill="none" stroke="black" d="M863,-161.94C863,-150.56 863,-138 863,-138 863,-138 575.11,-138 575.11,-138 575.11,-138 575.11,-132.19 575.11,-132.19"/>
<polygon fill="black" stroke="black" points="578.61,-132.19 575.11,-122.19 571.61,-132.19 578.61,-132.19"/>
</g>
<!-- UsersService -->
<g id="node12" class="node">
<title>UsersService</title>
<ellipse fill="#fdb462" stroke="black" cx="1200" cy="-180" rx="61.95" ry="18"/>
<text text-anchor="middle" x="1200" y="-175.8" font-family="Times,serif" font-size="14.00">UsersService</text>
</g>
<!-- UsersService&#45;&gt;UsersModule -->
<g id="edge13" class="edge">
<title>UsersService&#45;&gt;UsersModule</title>
<path fill="none" stroke="black" d="M1200,-161.99C1200,-139.51 1200,-104 1200,-104 1200,-104 716.04,-104 716.04,-104"/>
<polygon fill="black" stroke="black" points="716.04,-100.5 706.04,-104 716.04,-107.5 716.04,-100.5"/>
</g>
</g>
</svg>
